<svg xmlns="http://www.w3.org/2000/svg" width="512" height="512" viewBox="0 0 512 512" fill="none">
  <defs>
    <linearGradient id="bg" x1="40" y1="32" x2="472" y2="480" gradientUnits="userSpaceOnUse">
      <stop stop-color="#7C3AED"/>
      <stop offset="0.5" stop-color="#2563EB"/>
      <stop offset="1" stop-color="#06B6D4"/>
    </linearGradient>
    <linearGradient id="shine" x1="128" y1="112" x2="384" y2="400" gradientUnits="userSpaceOnUse">
      <stop stop-color="#FFFFFF" stop-opacity="0.9"/>
      <stop offset="1" stop-color="#E0E7FF" stop-opacity="0.6"/>
    </linearGradient>
  </defs>

  <rect x="36" y="36" width="440" height="440" rx="112" fill="url(#bg)"/>

  <!-- Shield body -->
  <path d="M256 108c60 36 116 44 116 44v104c0 80-56 132-116 160-60-28-116-80-116-160V152s56-8 116-44Z" fill="url(#shine)"/>

  <!-- Keyhole -->
  <circle cx="256" cy="256" r="36" fill="#1E293B" fill-opacity="0.9"/>
  <rect x="244" y="280" width="24" height="56" rx="12" fill="#1E293B" fill-opacity="0.9"/>

  <!-- Spark accents -->
  <path d="M392 172l12 4-12 4-4 12-4-12-12-4 12-4 4-12 4 12Z" fill="#E0F2FE"/>
  <path d="M136 340l10 4-10 4-4 10-4-10-10-4 10-4 4-10 4 10Z" fill="#DBEAFE"/>
</svg>
